<svg id="Слой_1" data-name="Слой 1" xmlns="http://www.w3.org/2000/svg" xmlns:xlink="http://www.w3.org/1999/xlink" viewBox="0 0 100 100"><defs><style>.cls-1{fill-rule:evenodd;fill:url(#Hot_Pink);}.cls-2{fill:url(#Neutral_2);}.cls-3{font-size:26.15px;font-family:BuxtonSketch, Buxton Sketch;}</style><linearGradient id="Hot_Pink" x1="27.62" y1="89.4" x2="73.35" y2="10.2" gradientUnits="userSpaceOnUse"><stop offset="0" stop-color="#d473a8"/><stop offset="0.5" stop-color="#c80186"/><stop offset="1" stop-color="#ae1887"/></linearGradient><linearGradient id="Neutral_2" x1="1.99" y1="49.8" x2="98.97" y2="49.8" gradientUnits="userSpaceOnUse"><stop offset="0" stop-color="#fff"/><stop offset="0.13" stop-color="#939393"/><stop offset="0.29" stop-color="#939393"/><stop offset="0.64" stop-color="#bbb"/><stop offset="0.8" stop-color="#d6d6d6"/><stop offset="1" stop-color="#919395"/></linearGradient></defs><title>Монтажная область 4 копия</title><path class="cls-1" d="M96,49.8A45.65,45.65,0,0,1,50.48,95.6h0A45.65,45.65,0,0,1,5,49.8H5A45.65,45.65,0,0,1,50.48,4h0A45.65,45.65,0,0,1,96,49.8Z"/><path class="cls-2" d="M50.48,4A45.65,45.65,0,0,1,96,49.8h0A45.65,45.65,0,0,1,50.48,95.6h0A45.65,45.65,0,0,1,5,49.8H5A45.65,45.65,0,0,1,50.48,4h0m0-3A48.8,48.8,0,1,0,99,49.8,48.7,48.7,0,0,0,50.48,1Z"/><text class="cls-3" transform="translate(48.52 45.35) scale(1.05 1)"> </text></svg>